<svg id="Logo_1" data-name="Logo 1" xmlns="http://www.w3.org/2000/svg" viewBox="0 0 200 200"><defs><style>.cls-1{fill:#df1c48;}.cls-1,.cls-2,.cls-3{stroke:#231f20;stroke-miterlimit:10;}.cls-2{fill:#fff100;}.cls-3{fill:#ec81b3;}</style></defs><path class="cls-1" d="M67.46,170.29c21.32-.85,52.72-5.64,67.7-10.28s21.32-8.13,27.64-11.7a48.77,48.77,0,0,0,22.56-26.51c4.48-12.72,2.22-26.87-9.71-33.13a23.91,23.91,0,0,0-23.09,41.88l2,1.16a2.83,2.83,0,0,1,.76,4.19h0c-.88,1.23-13.9,12.26-33.88,20.9C104.87,164,84,167.34,67.46,170.29Z"/><path class="cls-2" d="M12.5,176.15c24.56-5.12,45.66-12.26,68.25-33.37C95.46,129,104,108.89,101.88,95.92v0c-.38-2.34-2.05-2.78-5-1.88-7,2.15-10.1,2.48-17,1.72A36,36,0,1,1,106.5,32.3h0c14,10.71,21.21,28.76,18.21,61-1.57,16.88-10.93,40.4-28.07,55C70.41,170.56,36.88,175,12.5,176.15Z"/><path class="cls-3" d="M18.6,168.34c16.67-8,23.45-19.35,25.14-22.62a3.36,3.36,0,0,0-2.6-4.87,18,18,0,0,1-15.76-15.54A18.42,18.42,0,0,1,40,105.24,17.86,17.86,0,0,1,61.12,122.3l.05,1.36c0,.43,0,.87,0,1.3C60.28,143.63,48.62,157.41,18.6,168.34Z"/></svg>